<svg xmlns="http://www.w3.org/2000/svg" viewBox="0 0 20.14 23.52">
  <defs>
    <style>
      .a{fill:#887e71}.b{fill:#fd961f}.c{fill:#747068}.d{fill:#212a31}.e{fill:#fd951e}.f{fill:#232b33}.g{fill:#232c33}.h{fill:#726f68}.i{fill:#273038}.j{fill:#8c8376}.k{fill:#262e35}.l{fill:#fcf7ef}.m{fill:#6f6c64}.n{fill:#fcf7f1}.o{fill:#283139}.p{fill:#ebecec}.q{fill:#e9d9c4}.r{fill:#232b32}.s{fill:#182026}.t{fill:#7a7165}.u{fill:#e4e5e5}.v{fill:#262d34}.w{fill:#232a31}.x{fill:#252e36}.y{fill:#8e8578}.z{fill:#fb8c14}.aa{fill:#877e71}.ab{fill:#dbdcde}.ac{fill:#96999c}.ad{fill:#ebe0d1}.ae{fill:#2e3841}.af{fill:#fc9d2e}.ag{fill:#e1e2e3}.ah{fill:#f1efed}.ai{fill:#dbdcdc}.aj{fill:#686359}.ak{fill:#a7a29b}.al{fill:#646057}.am{fill:#fef1e2}.an{fill:#d2d0ce}.ao{fill:#1b2228}.ap{fill:#141b20}.aq{fill:#fbc88d}.ar{fill:#d9dadb}.as{fill:#fc941e}.at{fill:#fa8c14}.au{fill:#a19a8c}.av{fill:#fef9f3}.aw{fill:#f3eadf}.ax{fill:#fb880d}.ay{fill:#fb8711}.az{fill:#aba7a2}.ba{fill:#fd8f18}.bb{fill:#fc8c15}.bc{fill:#b6b8ba}.bd{fill:#28323a}.be{fill:#71767a}.bf{fill:#fd992a}.bg{fill:#f6f3f0}.bh{fill:#fbf9f6}.bi{fill:#20292f}
    </style>
  </defs>
  <g>
    <path class="a" d="M14.64,10.56a.27.27,0,0,1,0-.12c.28-1.29-.39-2-1.47-2.5-.89-.43-1.72-1-2.58-1.51a4.59,4.59,0,0,1-.11-1.65c0-.65,0-1.29,0-1.93,0-.31.21-.46.51-.31s.54,0,.82-.18.63-.82,1.2-.88a11.23,11.23,0,0,1,1.73,1c0,.1-.07.13-.12.19-.31.37-.26.49.18.65a3.88,3.88,0,0,0,1.36,0c1.07.63,2.17,1.22,3.22,1.89.87.56.78,1.49.72,2.37a.2.2,0,0,1-.13.09c-.91.47-1.79,1-2.66,1.52-.24.14-.51.25-.75.39a5.54,5.54,0,0,0-.65.42C15.47,10.21,15.22,10.78,14.64,10.56Z"/>
    <path class="b" d="M14.71,20.89c0,.18-.13.24-.25.32l-3.77,2.26a.93.93,0,0,1-.24.05.2.2,0,0,1,0-.2c0-.83,0-1.67-.08-2.49a.77.77,0,0,1,0-.4c.14-.36.5-.46.78-.66,1.13-.77,2.33-1.42,3.42-2.25-1,.51-2,1.16-2.93,1.75a1.34,1.34,0,0,1-.62.28.33.33,0,0,1-.19-.06.84.84,0,0,1-.41-.84c0-.58,0-1.16,0-1.74a.36.36,0,0,1,.06-.2l3-1.77c.61.07,1-.48,1.54-.55a.63.63,0,0,1,.44.09c1.38.87,2.88,1.53,4.22,2.48.44.21.38.52.17.87a1.56,1.56,0,0,1-.57.57l-3.78,2.23a.63.63,0,0,1-.48.11c-.08,0-.17-.12-.27-.06S14.67,20.82,14.71,20.89Z"/>
    <path class="c" d="M8.07,18.84a.4.4,0,0,1-.37-.13,4.71,4.71,0,0,1-1.26-.65A.12.12,0,0,1,6.37,18s0,.06.06.08c.36.29.87.36,1.12.79-.52.62-1.32.83-1.94,1.32a1.19,1.19,0,0,1-1.61,0C3,19.52,2,19,1,18.37a1.65,1.65,0,0,1-.58-.47c-.37-.54-.31-.75.25-1.07C2.12,16,3.57,15.25,5,14.43a.85.85,0,0,1,1,0C7.2,15.23,8.4,16,9.58,16.68a.45.45,0,0,1,.08.46c-.1.2-.33.14-.48.23-.41.23-.89.42-.77,1.05C8.45,18.67,8.33,18.81,8.07,18.84Z"/>
    <path class="d" d="M5.41,3A.74.74,0,0,1,6,2.36a.71.71,0,0,1,.78.39c.23.34.63.45.92.71.09.07.36,0,.38.28A23.84,23.84,0,0,1,7.15,7.9c-.54.44-1.26.61-1.7,1.19a4.75,4.75,0,0,0,0,1.84c0,.21-.18.24-.24.37a1.07,1.07,0,0,1-.81.48,13.46,13.46,0,0,1-1.82-.62c-.23-.07-.54-.2-.39-.58l.12-.15a4.52,4.52,0,0,0,1-2A27.7,27.7,0,0,0,5,4.23,3.9,3.9,0,0,1,5.41,3Z"/>
    <path class="e" d="M14.64,10.56c.5,0,.79-.48,1.22-.64a6.42,6.42,0,0,1,1.95.95,13.33,13.33,0,0,1,2.11,1.2,1,1,0,0,1,0,.24s0,.11,0,.11,0-.1.08-.14.1,0,.12.06v4.2c-.17.25-.35.05-.48,0a25.17,25.17,0,0,1-2.46-1.31.47.47,0,0,1-.25-.33c0-.26.36-.46.19-.66s-.58-.1-.87-.07a3.74,3.74,0,0,0-.48.12h-.18a5.29,5.29,0,0,1-1-.7Z"/>
    <path class="f" d="M2.15,10.58c.05.4.42.5.68.54.59.07,1,.46,1.6.57,0,.18-.12.25-.22.35a1.59,1.59,0,0,1-.52.24A2.58,2.58,0,0,0,4.41,12c.28-.11.5-.45.86-.23.21.56,0,1.16.13,1.72-.05.27-.31.33-.5.43C3.43,14.71,2,15.53.48,16.35c-.17.09-.43.3-.42-.11a34.31,34.31,0,0,1,.07-4.18A10,10,0,0,1,.2,13.79a11.08,11.08,0,0,0-.07-1.73Z"/>
    <path class="g" d="M.11,6.27c.28-1,1.25-1.2,2-1.65a1.78,1.78,0,0,1,.69,0c.63,0,.82.26.73.89,0,.35-.11.64.43.52.14,0,.18.14.2.27a4.84,4.84,0,0,1-.84,1.9,13.45,13.45,0,0,1-2.45.39.59.59,0,0,1-.71-.36c0-.59,0-1.17,0-1.75A.23.23,0,0,1,.11,6.27Z"/>
    <path class="h" d="M9.44,23.4c-1.25-.74-2.5-1.5-3.77-2.23-.44-.25-.36-.39,0-.59.63-.33,1.25-.66,1.86-1a.88.88,0,0,1,1-.05c.51.14,1,.27,1.19.89s0,1.45,0,2.18C9.73,22.87,9.78,23.21,9.44,23.4Z"/>
    <path class="i" d="M4,6.28c-.1-.33-.3,0-.4,0-.39.06-.47-.07-.36-.4a2.7,2.7,0,0,0,.12-.49c.05-.37-.08-.61-.51-.58a1.34,1.34,0,0,1-.79-.15L4.92,2.88c.32,0,.29.28.26.46a12.27,12.27,0,0,1-.93,2.84A.18.18,0,0,1,4,6.28Z"/>
    <path class="j" d="M13,1.48c-.46.43-.91.86-1.38,1.28a.38.38,0,0,1-.55,0c-.15-.11-.26-.28-.48-.14a12.59,12.59,0,0,1-.09-1.36c.34-.36.88-.22,1.23-.55A6.28,6.28,0,0,1,13,1.48Z"/>
    <path class="k" d="M2,10.3l-1.64,1C0,11.15.15,10.84.14,10.6s0-.62,0-.92.2-.41.4-.54A.51.51,0,0,1,.7,9.05c.21-.05.37-.21.6-.21a3,3,0,0,1,1.17,1C2.52,10.16,2.27,10.23,2,10.3Z"/>
    <path class="l" d="M15.63,14.17h.12a2,2,0,0,1,1.22.67c.92.66,2,1.12,2.93,1.7.06,0,.16,0,.24,0-.06.22-.23.18-.39.16-.43-.07-.07.18-.1.26a33.16,33.16,0,0,1-4.28-2.39C15.3,14.34,15.45,14.25,15.63,14.17Z"/>
    <path class="m" d="M8.07,18.84c.12-.13.25-.22.21-.47a1.07,1.07,0,0,1,1.29-1.15c.33.47.13,1,.17,1.49a3,3,0,0,1,0,.79.54.54,0,0,1-.07.19c-.39.18-.59-.12-.84-.32S8.23,19.14,8.07,18.84Z"/>
    <path class="n" d="M19.93,12.17l-3.6-2-.47-.29a1.16,1.16,0,0,1,.64-.35c.38,0,.61.29.93.41.67.44,1.39.79,2.08,1.19a1,1,0,0,0,.34.19,2.7,2.7,0,0,1,.28,0c-.09.31-.22.63,0,.94a.27.27,0,0,0-.1-.06A.11.11,0,0,1,19.93,12.17Z"/>
    <path class="o" d="M7.94,3.63a2.42,2.42,0,0,1-1.36-.9c-.12-.17-.38-.25-.57-.37l1.31-.85a4.88,4.88,0,0,1,1,1.42C8.22,3.19,8.34,3.54,7.94,3.63Z"/>
    <path class="p" d="M4,6.28A15.56,15.56,0,0,0,5,3.47c0-.18.22-.44-.09-.59.24-.27.32.11.49.12a17.55,17.55,0,0,1-1.9,5.26,1,1,0,0,0-.11.28c-.18,0-.2-.1-.22-.22a.25.25,0,0,1,.08-.16A16.19,16.19,0,0,0,4,6.28Z"/>
    <path class="q" d="M10.44,16.71l0,.13a5.63,5.63,0,0,1,0,1.42,5,5,0,0,0,.14,1.4s0,.05,0,.06c-.87.77-.64,1.8-.64,2.77a1.32,1.32,0,0,1-.06.39c-.24.11.06.46-.25.53-.14-1,0-2-.06-3,0-.18,0-.37,0-.55.05-.37,0-.75,0-1.13a1,1,0,0,0,0-1.41.68.68,0,0,1,.1-.57A1.09,1.09,0,0,0,10.44,16.71Z"/>
    <path class="r" d="M8.82,1l0-.37a.18.18,0,0,1,.3.07,5.44,5.44,0,0,1,.55,1.23c0,.4,0,.81,0,1.22-.06.2-.25.36-.4.23-.31-.26-.88-.24-.92-.81A3.12,3.12,0,0,1,8.82,1Z"/>
    <path class="s" d="M9.57,3.26V1.87C9.47,1.28,9.2.69,9.57.1c.25-.13.22.06.23.2,0,1.93,0,3.87,0,5.8,0,.16,0,.29-.2.34a.63.63,0,0,1-.19-.53c0-.35,0-.7,0-1C9.43,4.33,9.25,3.76,9.57,3.26Z"/>
    <path class="t" d="M10.58,1.12V2.63c0,1.26,0,2.53,0,3.8-.26-.13-.2-.39-.2-.61,0-1.79,0-3.59,0-5.38,0-.18-.17-.64.35-.34A1.16,1.16,0,0,1,10.58,1.12Z"/>
    <path class="u" d="M7.94,3.63c.17-.22.13-.51.22-.76,0-.07,0-.12.08-.14.28.13.21.38.21.61s-.06.25-.08.38c0,.41-.19.8-.25,1.21,0,.19,0,.38,0,.56a5.06,5.06,0,0,0-.17,2c-.18.28-.59.12-.77.4Z"/>
    <path class="v" d="M8.21,2.75l-.05.12c-.27-.46-.75-.79-.84-1.36A4.48,4.48,0,0,1,8.44.71c.27,0,.15.27.23.39A4.52,4.52,0,0,1,8.21,2.75Z"/>
    <path class="w" d="M7.92,7.5c-.22,0-.36.06-.29-.26.12-.57.21-1.14.32-1.72.32.26.55.63,1,.76.21.06.21.28.13.48Z"/>
    <path class="x" d="M9.07,6.76C9,6.58,9,6.33,8.73,6.3c-.48,0-.68-.35-.78-.78L8,4.9a1,1,0,0,1,.92.47,2.16,2.16,0,0,0,.67.53l0,.54A1.14,1.14,0,0,1,9.07,6.76Z"/>
    <path class="y" d="M16.14,3.37a1.56,1.56,0,0,1-1.38.16c-.27-.08-.61-.09-.59-.41a.59.59,0,0,1,.55-.59Z"/>
    <path class="z" d="M20.13,11.4c-.07.06-.09.2-.23.15a5.13,5.13,0,0,1-.19-2.13,9.45,9.45,0,0,1,0-1.19c0-.24,0-.53.33-.58l0,0C20.1,8.88,20.11,10.14,20.13,11.4Z"/>
    <path class="aa" d="M10.58,1.12a1.87,1.87,0,0,1,.14-1,3.56,3.56,0,0,1,1,.62C11.46,1.19,11.11,1.4,10.58,1.12Z"/>
    <path class="ab" d="M3.27,8.27l.13.27C3.15,9.24,3,10,2.27,10.43L2,10.3c.13-.17.44-.19.42-.48a10.29,10.29,0,0,1,.47-1.2C3,8.46,3,8.26,3.27,8.27Z"/>
    <path class="ac" d="M.62,9.17c0,.23-.27.21-.37.35-.16.63,0,1.27-.1,1.89-.16,0-.15-.18-.15-.3V6.61a1.5,1.5,0,0,1,.11-.34l.05.14A19.76,19.76,0,0,0,.3,8.72.58.58,0,0,0,.42,9,.67.67,0,0,1,.62,9.17Z"/>
    <path class="ad" d="M10,22.88l-.11-.26a1,1,0,0,0,.23-1.13,1.61,1.61,0,0,1-.1-.78c0-.26.15-.49.49-.34v.37a10.68,10.68,0,0,1,0,2.65v.13c-.18-.11-.13-.28-.14-.43S10.17,22.78,10,22.88Z"/>
    <path class="ae" d="M9.57.1V1.87L8.84.62A1.52,1.52,0,0,1,9.57.1Z"/>
    <path class="af" d="M15,14.45c-.26.16-.51.35-.78.49a.68.68,0,0,1-.77,0l.8-.58c.23-.31.48-.27.73,0h0s.06,0,.06.06S15,14.45,15,14.45Z"/>
    <path class="ag" d="M8.21,2.75l.38-1.64c0-.05,0-.13.12-.14l.11,0L8.49,2.63c-.06.26.26.59-.17.77C8.28,3.19,8.39,2.94,8.21,2.75Z"/>
    <path class="ah" d="M9.83,19.86c0,.14,0,.29-.14.39s-.08.05-.11,0c-.27-.36-.74-.44-1-.74.1,0,.21,0,.27-.13.32,0,.51.25.76.37A.34.34,0,0,1,9.83,19.86Z"/>
    <path class="ai" d="M4.16,11.93l.27-.24.74-.39.23.29c-.06.07-.11.16-.22.13l-.75.35C4.28,12.14,4.15,12.16,4.16,11.93Z"/>
    <path class="aj" d="M9.58,20.24h.11c0,1.05,0,2.11,0,3.16-.08-.05-.18.19-.26,0a6.72,6.72,0,0,0,.13-2.1C9.6,21,9.58,20.59,9.58,20.24Z"/>
    <path class="ak" d="M9.83,19.86a.3.3,0,0,1-.26-.12.08.08,0,0,1,0-.07,14,14,0,0,0,.07-2.15,2.15,2.15,0,0,1,.06-.8.25.25,0,0,1,.12,0l0,.63a1.3,1.3,0,0,1,0,1.24Z"/>
    <path class="al" d="M9.7,16.72c0,.8,0,1.61,0,2.41,0,.18.12.41-.13.54v-3A.25.25,0,0,1,9.7,16.72Z"/>
    <path class="am" d="M15,14.45a.43.43,0,0,1,0-.11c.2-.18.14-.31-.07-.42s-.31-.14-.3-.35l1,.6-.26.4Z"/>
    <path class="an" d="M6.43,18l1.27.74-.15.15-1.23-.77C6.28,18,6.3,17.92,6.43,18Z"/>
    <path class="ao" d="M5.18,11.72l.22-.13a9.53,9.53,0,0,1,0,1.85c-.21-.34-.07-.71-.1-1.07A1.22,1.22,0,0,0,5.18,11.72Z"/>
    <path class="ap" d="M5.41,10.93a4.58,4.58,0,0,1-.07-1.88.11.11,0,0,1,.06,0l0,0Z"/>
    <path class="am" d="M15,14.34a.65.65,0,0,0-.73,0C14.48,13.86,14.72,13.86,15,14.34Z"/>
    <path class="aq" d="M14.71,20.89c-.11-.05-.35-.05-.21-.24s.36-.16.49.09C14.88,20.75,14.76,20.75,14.71,20.89Z"/>
    <path class="ar" d="M8.71,1l-.12.14C8.54,1,8.7.76,8.44.71c0-.08.1-.16.18-.13S8.68.84,8.71,1Z"/>
    <path class="as" d="M20,7.65c-.3.57-.07,1.18-.14,1.77a.83.83,0,0,0-.17,1.24c.21.28.14.36-.21.65a13.68,13.68,0,0,1-2.17-1.24c.36-.35.22-.64-.12-.91a24.59,24.59,0,0,1,2.66-1.59S20,7.62,20,7.65Z"/>
    <path class="at" d="M17.23,9.16c.27.05.55.17.59.43s-.25.38-.47.48a2.51,2.51,0,0,1-.85-.5A1.31,1.31,0,0,1,17.23,9.16Z"/>
    <path class="au" d="M16,9.63a.64.64,0,0,1-.66-.27C15.59,9.24,15.77,9.35,16,9.63Z"/>
    <path class="av" d="M11.09,19.5c1.09-.82,2.29-1.46,3.42-2.21.15-.09.3-.14.38,0s-.12.3-.24.37c-1.14.74-2.3,1.46-3.45,2.18C10.91,19.82,11,19.66,11.09,19.5Z"/>
    <path class="aw" d="M11.09,19.5c0,.13,0,.27.11.36l-.74.51c-.54.1-.46.52-.31.81a2.59,2.59,0,0,1,.18,1c0,.37-.16.47-.49.42,0-.43,0-.86,0-1.29,0-.68.06-1.26.77-1.56,0-.2.13-.33.37-.29Z"/>
    <path class="ax" d="M11,19.48l-.37.29c-.18-.07-.17-.22-.17-.37,0-.85,0-1.7,0-2.56a3.74,3.74,0,0,1,.11,1.66A1.1,1.1,0,0,0,11,19.48Z"/>
    <path class="ay" d="M10.45,23.39V20.74A5.65,5.65,0,0,1,10.45,23.39Z"/>
    <path class="az" d="M6.43,18l-.11.12-.4-.29A.48.48,0,0,1,6.43,18Z"/>
    <path class="ba" d="M17,14.85a6,6,0,0,1-1.22-.67A1.9,1.9,0,0,1,16.94,14c.18,0,.4,0,.49.17s-.13.31-.23.45A3.11,3.11,0,0,1,17,14.85Z"/>
    <ellipse class="bb" cx="19.95" cy="14.53" rx="0.04" ry="1.84"/>
    <path class="bb" d="M19.93,12.17l.11.11-.05.37C19.9,12.45,19.76,12.33,19.93,12.17Z"/>
    <path class="bc" d="M4.16,11.93c0,.13.16.13.27.14a2.67,2.67,0,0,1-1.11.5A2.6,2.6,0,0,1,4.16,11.93Z"/>
    <path class="bd" d="M.62,9.17l-.24,0C.07,8.9.2,8.59.26,8.29c.21.13.37.32.65.08s.47,0,.71,0A1.78,1.78,0,0,0,2.79,8.1c.17-.13.34-.16.47.06a.37.37,0,0,1,0,.11c-.38.46-.33,1.16-.83,1.55l-1.16-.9C1,8.82,1,9.05.8,9.15Z"/>
    <path class="be" d="M.8,9.15c.06-.29.18-.43.48-.23Z"/>
    <path class="bf" d="M19.52,11.31a.52.52,0,0,0,0-.73c-.44-.63-.38-.76.36-1.16v2.13Z"/>
    <path class="bg" d="M9.85,18.6V17.36C10.35,17.92,10.35,18.21,9.85,18.6Z"/>
    <path class="bh" d="M10.32,19.41c0,.14,0,.38-.21.36s-.16-.21-.16-.35,0-.38.23-.36S10.28,19.28,10.32,19.41Z"/>
    <path class="o" d="M8.32,3.4a1.73,1.73,0,0,0,.17-.77c.3.31.58.66,1.08.63V4.89A2.24,2.24,0,0,1,8.22,3.63Z"/>
    <path class="bi" d="M8.22,3.63,9.57,4.89v1c-.06,0-.13.07-.17,0-.51-.29-.88-.79-1.42-1C8,4.47,8.26,4.08,8.22,3.63Z"/>
  </g>
</svg>
